<?xml version="1.0"?>
<svg xmlns="http://www.w3.org/2000/svg" id="Layer_1" data-name="Layer 1" viewBox="0 0 216 76.29">
  <defs>
    <style>.cls-1{fill:#b0afab;}.cls-2{fill:#b7b6b2;}</style>
  </defs>
  <title>InsuranceLogos</title>
  <path class="cls-1" d="M97.23,35.16V21.4h5.22c2.49-.17,5,.88,5,3.6A3.25,3.25,0,0,1,105,28a3.57,3.57,0,0,1,3,3.6c0,2.72-3.45,3.76-5.54,3.6h-5.3Zm5.3-8.24c1.28,0,1.93-.48,1.93-1.6s-.73-1.6-1.93-1.6H100.2V27h2.33Zm0,5.92c1.36,0,2.33-.24,2.33-1.84s-1-1.84-2.33-1.84H100.2v3.68ZM112.8,21.4V35.16h-2.89V21.4ZM121.55,34a3.37,3.37,0,0,1-3,1.44c-1,0-2.81-.72-3.13-2.08a5.75,5.75,0,0,1-.16-1.52V25.56h2.89v5.76c0,1,.32,2.24,1.69,2.24.88,0,1.68-.8,1.68-2.24V25.56h2.89V33.4c0,.56.08,1.12.08,1.68h-2.89L121.55,34Zm8-2.8c0,1.28.16,2.4,1.69,2.4A1.6,1.6,0,0,0,133,32.28h2.57c-.24,2.4-2.09,3.12-4.33,3.12-3.3,0-4.66-1.84-4.66-5,0-2.88,1.69-5.12,4.66-5.12a4.17,4.17,0,0,1,4.09,2.32,6.64,6.64,0,0,1,.48,1.68,13.56,13.56,0,0,1,.08,1.84H129.5v.08Zm3.37-1.92c0-1-.32-2-1.68-2s-1.61,1-1.69,2Zm12.68-3.44a2.47,2.47,0,0,0-2.64-2.64c-2.09,0-2.65,3.12-2.65,5s.56,5,2.65,5a2.47,2.47,0,0,0,2.64-2.64h3.13c-.16,3.44-2.64,4.72-5.77,4.72-4,0-5.78-3.12-5.78-7.2s1.76-7.21,5.78-7.21c3.21,0,5.69,1.29,5.77,4.73h-3.13Zm7.31-.24.08,1.76a3,3,0,0,1,3.29-1.84V28H155a1.79,1.79,0,0,0-1.37.72,3.08,3.08,0,0,0-.4,1.68v4.72h-2.89V27.48c0-.4-.08-1.2-.08-1.92Zm9.63,9.93a4.78,4.78,0,0,1-5.06-5.13,5.06,5.06,0,1,1,10.12,0A4.78,4.78,0,0,1,162.49,35.49Zm0-1.93c1.77,0,2.09-1.68,2.09-3.2s-.32-3.2-2.09-3.2-2.09,1.68-2.09,3.2S160.73,33.56,162.49,33.56Zm12-5.44c0-.64-.64-1-1.28-1-.81,0-1.13.24-1.13.88,0,1.52,5.54.64,5.54,4.24,0,2.08-2.57,3.12-4.33,3.12-2.25,0-4.18-.88-4.26-3h2.65a1.46,1.46,0,0,0,1.61,1.2c.8,0,1.36-.32,1.36-1s-1.36-1.12-1.92-1.2c-1.85-.4-3.54-.88-3.54-3,0-2,2.41-2.88,4.1-2.88,2,0,3.77.72,3.85,2.88h-2.65Zm9.55,0c0-.64-.64-1-1.28-1-.8,0-1.12.24-1.12.88,0,1.52,5.53.64,5.53,4.24,0,2.08-2.56,3.12-4.33,3.12-2.25,0-4.17-.88-4.25-3h2.64a1.47,1.47,0,0,0,1.61,1.2c.8,0,1.36-.32,1.36-1s-1.36-1.12-1.92-1.2c-1.85-.4-3.53-.88-3.53-3,0-2,2.4-2.88,4.09-2.88,2,0,3.77.72,3.85,2.88H184v-.16ZM97.23,53.9V40.13h5.22c2.49-.16,5,.88,5,3.6a3.25,3.25,0,0,1-2.41,3,3.57,3.57,0,0,1,3,3.61c0,2.72-3.45,3.76-5.54,3.6h-5.3Zm5.3-8.25c1.28,0,1.93-.48,1.93-1.6s-.73-1.6-1.93-1.6H100.2v3.28Zm0,5.93c1.36,0,2.33-.24,2.33-1.84s-1-1.85-2.33-1.85H100.2v3.69ZM112.8,40.13V53.9h-2.89V40.13Zm8.75,12.57a3.37,3.37,0,0,1-3,1.44c-1,0-2.81-.72-3.13-2.16a5.75,5.75,0,0,1-.16-1.52V44.21h2.89v5.85c0,1,.32,2.24,1.69,2.24.88,0,1.68-.8,1.68-2.24V44.29h2.89v7.85c0,.56.08,1.12.08,1.68h-2.89l-.08-1.12Zm8-2.8c0,1.28.16,2.4,1.69,2.4A1.6,1.6,0,0,0,133,51h2.57c-.24,2.4-2.09,3.12-4.33,3.12-3.3,0-4.66-1.84-4.66-5,0-2.88,1.69-5.12,4.66-5.12a4.17,4.17,0,0,1,4.09,2.32,6.64,6.64,0,0,1,.48,1.68,13.64,13.64,0,0,1,.08,1.85l-6.34.08ZM132.87,48c0-1-.32-2-1.68-2s-1.61,1-1.69,2Zm12.28-3.92A2,2,0,0,0,142.82,42c-1.12,0-2.16.56-2.16,1.76,0,1.52,1.36,1.68,2.57,1.92,2.08.56,5.21,1.12,5.21,3.93,0,3.44-3,4.64-5.94,4.64-3.13,0-5.37-1.2-5.29-4.73h3a2.22,2.22,0,0,0,2.32,2.57c1.21,0,2.73-.4,2.73-1.84,0-1.61-2-1.77-3.13-2.09-1.92-.48-4.57-1.36-4.57-3.84,0-3.12,2.89-4.56,5.78-4.56,2.65,0,4.73,1.44,4.73,4.24l-3,.08Zm5.3,9.85V40.13h2.89v5.36a3.29,3.29,0,0,1,3-1.44c1,0,2.81.72,3.13,2.08a5.75,5.75,0,0,1,.16,1.52V53.9h-2.81V48.13c0-1-.32-2.16-1.68-2.16-.89,0-1.69.8-1.69,2.16V53.9Zm14.69-13.77v2.48h-3V40.13ZM165,44.29V53.9h-2.89V44.29ZM170,49.9c0,1.28.16,2.4,1.68,2.4A1.61,1.61,0,0,0,173.49,51h2.57c-.24,2.4-2.09,3.12-4.34,3.12-3.29,0-4.65-1.84-4.65-5,0-2.88,1.68-5.12,4.65-5.12a4.19,4.19,0,0,1,4.1,2.32A6.64,6.64,0,0,1,176.3,48a13.64,13.64,0,0,1,.08,1.85L170,49.9ZM173.33,48c0-1-.32-2-1.69-2s-1.6,1-1.68,2ZM181,40.13V53.9h-2.89V40.13Zm9.15,0H193V52.06c0,.64.08,1.28.08,1.92h-2.89c0-.48-.08-.88-.08-1.36a3.24,3.24,0,0,1-3,1.68c-2.8,0-4.17-2.64-4.17-5.13s1.53-5.12,4.5-5.12A3.3,3.3,0,0,1,190,45.41ZM188,52.3c1.52,0,2.08-1.84,2.08-3.21s-.48-3.2-2.08-3.2c-1.85,0-2.09,1.68-2.09,3.2S186.17,52.3,188,52.3Zm.48-17.14a.88.88,0,1,1,.88-.88.84.84,0,0,1-.88.88Zm0-2a1,1,0,1,0,1,1,1.06,1.06,0,0,0-1-1Z"/>
  <path class="cls-1" d="M158.33,35.74h-.22v-.36h.29c.15,0,.29,0,.29.14s-.22.22-.36.22m.51-.22c0-.22-.08-.29-.37-.29H158v1.1h.14v-.51h.22l.36.51h.15l-.29-.51a.27.27,0,0,0,.29-.3m5,18.24a.81.81,0,1,1,.79-.81.81.81,0,0,1-.79.81m0-1.84a1,1,0,1,0,.93.95,1,1,0,0,0-.93-.95"/>
  <path class="cls-1" d="M163.19,53.31H163V53h.32c.17,0,.33,0,.33.13s-.16.2-.41.2m.65-.2c0-.19-.08-.26-.4-.26h-.58v1H163v-.46h.24l.33.46h.16l-.32-.46c.24,0,.4-.06.4-.26"/>
  <path class="cls-2" d="M54.19,51.63a1.88,1.88,0,0,0,0,3.75,1.9,1.9,0,0,0,1.87-1.88A1.84,1.84,0,0,0,54.19,51.63Zm0,3.42a1.55,1.55,0,1,1,1.55-1.55A1.45,1.45,0,0,1,54.19,55.05Z"/>
  <path class="cls-2" d="M55.17,53c0-.4-.16-.57-.73-.57h-.9v2.12h.24v-.89h.49l.57.89h.33l-.65-.89C54.92,53.58,55.17,53.42,55.17,53Zm-1,.33h-.41v-.65h.57c.25,0,.49,0,.49.32s-.4.33-.65.33ZM39.54,41c-.09,0-.09,0-.17.09l-3.09,4.72a8.08,8.08,0,0,0,6.35,0l-3.09-4.72c.08-.09,0-.09,0-.09Zm-3-3.9-4.64-.41a7,7,0,0,0-.24,1.87,8.06,8.06,0,0,0,1.87,5.13l3.26-6.19C36.93,37.38,36.85,37.22,36.52,37.14Z"/>
  <path class="cls-2" d="M46.86,31.19V22H32.13v9.2h-9.2V45.93h9.2v9.2H46.86v-9.2h9.2V31.19Zm-7.32-1.71a8.89,8.89,0,0,1,8.22,5.3H41.25a1.31,1.31,0,0,1-1.39-1,1.68,1.68,0,0,1,.49-1.22,1.19,1.19,0,0,0-.9-1.88,1.18,1.18,0,0,0-.89,1.88,1.68,1.68,0,0,1,.49,1.22c0,.41-.41,1-1.39,1H31.15a9.45,9.45,0,0,1,8.39-5.3ZM30.42,38.6A9.8,9.8,0,0,1,31,35.43l6.1.57a1.32,1.32,0,0,1,1,2l-4.15,7.9A9.31,9.31,0,0,1,30.42,38.6ZM44.5,46.26a9,9,0,0,1-5,1.46,9.65,9.65,0,0,1-5-1.46l4.47-6.6a.65.65,0,0,1,1.14,0Zm.65-.49L41,38a1.32,1.32,0,0,1,1-2l6.11-.57a8.52,8.52,0,0,1,.57,3.17A9,9,0,0,1,45.15,45.77Z"/>
  <path class="cls-2" d="M45.48,33.47A7.75,7.75,0,0,0,41.73,31a2.08,2.08,0,0,1-.32,2.28.11.11,0,0,0,0,.16Zm-2.93,3.67c-.33,0-.33.16-.25.32l3.26,6.19a8.08,8.08,0,0,0,1.87-5.13,7,7,0,0,0-.24-1.87Zm-5.21-6a7.75,7.75,0,0,0-3.75,2.44h4.07c.08,0,.08-.08,0-.16a2.12,2.12,0,0,1-.32-2.28Z"/>
  <path class="cls-2" d="M84.17,22a23.27,23.27,0,0,1-22,0c-2.29,4.64-2.61,12.13-.63,18.4a25.63,25.63,0,0,0,11.64,15c6.1-3.42,9.74-9,11.64-15C86.86,34.12,86.46,26.63,84.17,22ZM82.58,39.66c-1.74,5.13-4.35,9.69-9.34,12.87-5-3.18-7.68-7.74-9.35-12.87-1.5-4.56-1.9-9.93-.23-14.09A29.69,29.69,0,0,0,69,27a21.26,21.26,0,0,0,4.28.32A30.11,30.11,0,0,0,77.51,27a28.12,28.12,0,0,0,5.31-1.39c1.58,4.16,1.27,9.53-.24,14.09Z"/>
  <path class="cls-2" d="M77.51,28.1a39.77,39.77,0,0,1-4.35.32,41.46,41.46,0,0,1-4.36-.32c-1.42-.25-2.85-.57-4.35-1a19.4,19.4,0,0,0,0,10.42C66,44.06,69.83,49,73.16,51.22c3.4-2.2,7.2-7.16,8.71-13.68.79-3.5,1-7.32,0-10.42A27.33,27.33,0,0,1,77.51,28.1ZM72.37,48.21c-.08.33.08.49.08.65s-.24.16-.32,0a1.22,1.22,0,0,1-.24-.81,1.09,1.09,0,0,1,.4-1.06,1.66,1.66,0,0,1,.32-.25l.07,1.06c-.15,0-.31.08-.31.41Zm1.34,1.06c0,.16-.08.32-.39.32s-.4-.08-.4-.4c-.08-1.31-.08-3.67-.08-3.67a1.93,1.93,0,0,1,.56.25c.08,0,.23.16.39.32,0,.08.08.08.08.17-.08.89-.16,2.6-.16,3Zm1-2.44a1.9,1.9,0,0,1-.63.32v-1a.35.35,0,0,0,.08-.24,3.84,3.84,0,0,0-1-.81A8.92,8.92,0,0,0,72,44.71a1.36,1.36,0,0,1-.79-1.87c.08-.33.47-.49.63-.57a2.56,2.56,0,0,1,.48-.17l.08,1.14s-.08,0-.16.17a.24.24,0,0,0,.16.32c.55.25,1.26.57,1.82.9.71.4,1,.73,1,1.3A.9.9,0,0,1,74.74,46.83Zm-2-5.3c.56.08.72.08,1.19.17L73.87,44l-.47-.25-.48-.24Zm3.17.49a1.48,1.48,0,0,1-.71,1,1.9,1.9,0,0,1-.87.24V41.86a.25.25,0,0,0,.16-.08.35.35,0,0,0,.07-.25.4.4,0,0,0-.15-.24.87.87,0,0,0-.4-.08L72.13,41a2,2,0,0,1-1.9-2c.08-.74.79-1,1.35-1.22l.39.81a2.55,2.55,0,0,0,.16.49s-.24.08-.24.24.24.25.32.25a9.74,9.74,0,0,1,2.45.49,1.77,1.77,0,0,1,1.27,2Zm-3.64-5.29s.24,0,.95.08a2.62,2.62,0,0,1,.87.16L74,39.42c-.55-.09-.87-.17-1.35-.25A5.49,5.49,0,0,0,72,37.3a.22.22,0,0,1,0-.25,1.35,1.35,0,0,1,.4-.16l-.08-.16Zm2.14,2.44s.08-1.14.08-1.71a.41.41,0,0,0,.23-.65.53.53,0,0,0-.39-.24,12.83,12.83,0,0,0-1.82-.25L71,36.08a3.54,3.54,0,0,1-2.45-1.79A2.56,2.56,0,0,1,69.68,31a2.85,2.85,0,0,1,2.69,0c.31.08.47.41.63.65.08.08.24.16.32.33s-.08.08-.08.08a2.24,2.24,0,0,1-1,0h-.95c.24.16.55.32.87.49.16.08.32.08.48.16s.23.08.23.16-.16.08-.31.16a1.46,1.46,0,0,1-.88,0c-.47-.08-.71-.4-1-.24s-.24.41-.16.73c.08.49.55.65,1,.82,1.34.49,2.85.16,4.11.89a2.28,2.28,0,0,1,1.19,1.39c.4,2.28-2.29,2.6-2.29,2.6ZM76.8,31.6c-.08.24-.16.24-.31.41-.32.32-.8.65-1.27,1.06a2.36,2.36,0,0,0-.79.81,1.15,1.15,0,0,0-.16.24c-.79-.16-1.51-.16-2.14-.32v-.65s.71,0,.79-.49a.44.44,0,0,0-.08-.25.81.81,0,0,0-.39-.16,6.81,6.81,0,0,1,1.66.57A1.81,1.81,0,0,0,74,32.5a.78.78,0,0,0-.4-.25c-.31-.08-1.18-.16-1.18-.16h.71c.16,0,.4-.08.4-.16s0-.25-.16-.41l-.24-.25c-.08-.16-.24-.32-.32-.48a2.17,2.17,0,0,0-.79-.49s-.08-.41.08-.57a.35.35,0,0,1,.48-.08,7,7,0,0,0,1.5.65c.16.08.16.08.16.32.08.41-.08,1,0,1.22s.16.09.16.09c.55-.33.87-.82,1.42-1.06s1.11.16,1,.73Zm7.52,20.11a1.79,1.79,0,1,0,1.75,1.79A1.78,1.78,0,0,0,84.32,51.71Zm0,3.34a1.55,1.55,0,1,1,1.51-1.55A1.47,1.47,0,0,1,84.32,55.05Z"/>
  <path class="cls-2" d="M85.27,53c0-.4-.15-.57-.71-.57h-.87v2.12h.24v-.89h.39l.56.89h.32l-.64-.89c.4-.09.71-.25.71-.66Zm-1,.41h-.39v-.65h.55c.24,0,.48,0,.48.33S84.56,53.42,84.32,53.42ZM71.5,31c.15.16.15.33.39.33a.42.42,0,0,0,.32-.17h.16c-.24-.24-.79-.24-1.19-.32C71.34,31,71.42,31,71.5,31Z"/>
</svg>
